<svg width="23" height="23" viewBox="0 0 23 23" fill="none" xmlns="http://www.w3.org/2000/svg">
<path d="M20.1211 0.388428H2.93359C2.31199 0.388428 1.71585 0.635358 1.27631 1.0749C0.836774 1.51443 0.589844 2.11058 0.589844 2.73218L0.589844 19.9197C0.589844 20.5413 0.836774 21.1374 1.27631 21.577C1.71585 22.0165 2.31199 22.2634 2.93359 22.2634H9.63525V14.8264H6.55908V11.3259H9.63525V8.65796C9.63525 5.62329 11.4419 3.94702 14.209 3.94702C15.5342 3.94702 16.9199 4.18335 16.9199 4.18335V7.16187H15.3931C13.8887 7.16187 13.4194 8.09546 13.4194 9.05298V11.3259H16.7778L16.2407 14.8264H13.4194V22.2634H20.1211C20.7427 22.2634 21.3388 22.0165 21.7784 21.577C22.2179 21.1374 22.4648 20.5413 22.4648 19.9197V2.73218C22.4648 2.11058 22.2179 1.51443 21.7784 1.0749C21.3388 0.635358 20.7427 0.388428 20.1211 0.388428V0.388428Z" fill="black"/>
</svg>
