<svg width="51" height="46" viewBox="0 0 51 46" fill="none" xmlns="http://www.w3.org/2000/svg">
<g filter="url(#filter0_d_4_18)">
<path d="M45.1621 7.74418C44.5076 6.22873 43.5639 4.85545 42.3838 3.70121C41.2028 2.54352 39.8104 1.62352 38.2822 0.991245C36.6976 0.333008 34.9981 -0.00391497 33.2822 3.43207e-05C30.875 3.43207e-05 28.5264 0.659214 26.4854 1.90433C25.9971 2.20218 25.5332 2.52933 25.0938 2.88578C24.6543 2.52933 24.1904 2.20218 23.7021 1.90433C21.6611 0.659214 19.3125 3.43207e-05 16.9053 3.43207e-05C15.1719 3.43207e-05 13.4922 0.332066 11.9053 0.991245C10.3721 1.62601 8.99023 2.5391 7.80371 3.70121C6.62205 4.85415 5.67811 6.22775 5.02539 7.74418C4.34668 9.32132 4 10.9961 4 12.7198C4 14.3457 4.33203 16.0401 4.99121 17.7637C5.54297 19.2041 6.33398 20.6983 7.34473 22.2071C8.94629 24.5948 11.1484 27.085 13.8828 29.6094C18.4141 33.794 22.9014 36.6846 23.0918 36.8018L24.249 37.544C24.7617 37.8711 25.4209 37.8711 25.9336 37.544L27.0908 36.8018C27.2813 36.6797 31.7637 33.794 36.2998 29.6094C39.0342 27.085 41.2363 24.5948 42.8379 22.2071C43.8486 20.6983 44.6445 19.2041 45.1914 17.7637C45.8506 16.0401 46.1826 14.3457 46.1826 12.7198C46.1875 10.9961 45.8408 9.32132 45.1621 7.74418V7.74418ZM25.0938 33.6817C25.0938 33.6817 7.71094 22.544 7.71094 12.7198C7.71094 7.74417 11.8271 3.71097 16.9053 3.71097C20.4746 3.71097 23.5703 5.70316 25.0938 8.61332C26.6172 5.70316 29.7129 3.71097 33.2822 3.71097C38.3604 3.71097 42.4766 7.74417 42.4766 12.7198C42.4766 22.544 25.0938 33.6817 25.0938 33.6817Z" fill="white"/>
</g>
<defs>
<filter id="filter0_d_4_18" x="0" y="0" width="50.1826" height="45.7896" filterUnits="userSpaceOnUse" color-interpolation-filters="sRGB">
<feFlood flood-opacity="0" result="BackgroundImageFix"/>
<feColorMatrix in="SourceAlpha" type="matrix" values="0 0 0 0 0 0 0 0 0 0 0 0 0 0 0 0 0 0 127 0" result="hardAlpha"/>
<feOffset dy="4"/>
<feGaussianBlur stdDeviation="2"/>
<feComposite in2="hardAlpha" operator="out"/>
<feColorMatrix type="matrix" values="0 0 0 0 0 0 0 0 0 0 0 0 0 0 0 0 0 0 0.25 0"/>
<feBlend mode="normal" in2="BackgroundImageFix" result="effect1_dropShadow_4_18"/>
<feBlend mode="normal" in="SourceGraphic" in2="effect1_dropShadow_4_18" result="shape"/>
</filter>
</defs>
</svg>
