<svg width="30" height="30" viewBox="0 0 30 30" fill="none" xmlns="http://www.w3.org/2000/svg">
<path d="M26.25 7.4751C22.0875 7.0626 17.9 6.8501 13.725 6.8501C11.25 6.8501 8.775 6.9751 6.3 7.2251L3.75 7.4751" stroke="black" stroke-width="2" stroke-linecap="round" stroke-linejoin="round"/>
<path d="M10.625 6.2125L10.9 4.575C11.1 3.3875 11.25 2.5 13.3625 2.5H16.6375C18.75 2.5 18.9125 3.4375 19.1 4.5875L19.375 6.2125" stroke="black" stroke-width="2" stroke-linecap="round" stroke-linejoin="round"/>
<path d="M23.5625 11.4248L22.75 24.0123C22.6125 25.9748 22.5 27.4998 19.0125 27.4998H10.9875C7.5 27.4998 7.3875 25.9748 7.25 24.0123L6.4375 11.4248" stroke="black" stroke-width="1.5" stroke-linecap="round" stroke-linejoin="round"/>
<path d="M12.9121 20.625H17.0746" stroke="black" stroke-width="1.5" stroke-linecap="round" stroke-linejoin="round"/>
<path d="M11.875 15.625H18.125" stroke="#292D32" stroke-width="1.5" stroke-linecap="round" stroke-linejoin="round"/>
</svg>
