<svg width="60" height="60" viewBox="0 0 60 60" fill="none" xmlns="http://www.w3.org/2000/svg">
<path d="M6.25 33.1V28.775C6.25 23.6 10.475 19.375 15.65 19.375H44.35C49.525 19.375 53.75 23.6 53.75 28.775V32.375H48.7C47.3 32.375 46.025 32.925 45.1 33.875C44.05 34.9 43.45 36.375 43.6 37.95C43.825 40.65 46.3 42.625 49 42.625H53.75V45.6C53.75 50.775 49.525 55 44.35 55H30.65" stroke="black" stroke-width="4" stroke-linecap="round" stroke-linejoin="round"/>
<path d="M6.25 31.025V19.6001C6.25 16.6251 8.07499 13.975 10.85 12.925L30.7 5.425C33.8 4.25 37.125 6.55007 37.125 9.87507V19.375" stroke="black" stroke-width="4" stroke-linecap="round" stroke-linejoin="round"/>
<path d="M56.397 34.9254V40.0755C56.397 41.4505 55.297 42.5754 53.897 42.6254H48.997C46.297 42.6254 43.822 40.6504 43.597 37.9504C43.447 36.3754 44.047 34.9004 45.097 33.8754C46.022 32.9254 47.297 32.3755 48.697 32.3755H53.897C55.297 32.4255 56.397 33.5504 56.397 34.9254Z" stroke="black" stroke-width="4" stroke-linecap="round" stroke-linejoin="round"/>
<path d="M17.5 30H35" stroke="black" stroke-width="4" stroke-linecap="round" stroke-linejoin="round"/>
<path d="M7.5 41.25H20.85C22.45 41.25 23.75 42.5499 23.75 44.1499V47.35" stroke="black" stroke-width="4" stroke-miterlimit="10" stroke-linecap="round" stroke-linejoin="round"/>
<path d="M10.55 38.2001L7.5 41.25L10.55 44.2999" stroke="black" stroke-width="4" stroke-miterlimit="10" stroke-linecap="round" stroke-linejoin="round"/>
<path d="M23.75 54.4501H10.4C8.80001 54.4501 7.5 53.15 7.5 51.55V48.3501" stroke="black" stroke-width="4" stroke-miterlimit="10" stroke-linecap="round" stroke-linejoin="round"/>
<path d="M20.7031 57.5008L23.7531 54.4508L20.7031 51.4008" stroke="black" stroke-width="3" stroke-miterlimit="10" stroke-linecap="round" stroke-linejoin="round"/>
</svg>
